# xmcd
#
# Track frame offsets:
#	150
#	21347
#	39433
#	63320
#	89658
#	108598
#	127973
#	146739
#	159933
#	182752
#	206051
#	228420
#	244944
#	267128
#	287925
#
# Disc length: 4533 seconds
#
# Revision: 0
# Processed by: cddbd v1.5.1PL2 Copyright (c) Steve Scherf et al.
# Submitted via: EasyCDDAExtractor 8.1.2.3
#
DISCID=dc11b30f
DTITLE=Fonky Family - Marginal musique
DYEAR=2006
DGENRE=Rap
TTITLE0=Les Affaires Reprennent
TTITLE1=C'est Plus Comme Avant
TTITLE2=La Guerre
TTITLE3=Le Quartier
TTITLE4=Comme On Débarque
TTITLE5=C'est Ça Ou Rien
TTITLE6=Tout Ce Qu'On A
TTITLE7=1984 (Fallait Que Je Le Dise)
TTITLE8=Marginale Musique
TTITLE9=Le Plus Grand Des Voyous
TTITLE10=On S'Invite
TTITLE11=Dans Les Yeux
TTITLE12=Ils Le Savent
TTITLE13=Chez Nous
TTITLE14=Cherche Pas
EXTD=
EXTT0=
EXTT1=
EXTT2=
EXTT3=
EXTT4=
EXTT5=
EXTT6=
EXTT7=
EXTT8=
EXTT9=
EXTT10=
EXTT11=
EXTT12=
EXTT13=
EXTT14=
PLAYORDER=
